<svg width="24" height="24" viewBox="0 0 24 24" fill="none" xmlns="http://www.w3.org/2000/svg">
<path d="M0.501018 4.46044C3.79492 7.25002 9.57471 12.1577 11.2735 13.688C11.5015 13.8945 11.7461 13.9995 12 13.9995C12.2534 13.9995 12.4976 13.8955 12.7251 13.6899C14.4253 12.1582 20.2051 7.25002 23.4991 4.46044C23.7041 4.28709 23.7354 3.98241 23.5694 3.77048C23.1856 3.28078 22.6133 3 22 3H2.00003C1.38677 3 0.814471 3.28078 0.430706 3.77053C0.264674 3.98241 0.29594 4.28709 0.501018 4.46044Z" fill="white"/>
<path d="M23.71 5.97191C23.5327 5.88941 23.3242 5.91819 23.1768 6.04419C19.5239 9.14085 14.8618 13.1101 13.395 14.4319C12.5717 15.175 11.4292 15.175 10.604 14.4309C9.0405 13.0222 3.80512 8.5715 0.823219 6.04414C0.674766 5.91814 0.465797 5.89035 0.290016 5.97186C0.113297 6.05394 0 6.2307 0 6.42552V18.9997C0 20.1028 0.896953 20.9998 2.00002 20.9998H22C23.103 20.9998 24 20.1028 24 18.9997V6.42552C24 6.2307 23.8867 6.05347 23.71 5.97191Z" fill="white"/>
</svg>
