<svg width="65" height="65" viewBox="0 0 65 65" fill="none" xmlns="http://www.w3.org/2000/svg">
<circle cx="32.5" cy="32.5" r="32.5" fill="black" fill-opacity="0.4"/>
<path d="M45.8596 42.5045L39.1783 35.8232C40.4455 34.2587 41.2084 32.2697 41.2084 30.1042C41.2084 25.0842 37.1242 21 32.1042 21C27.0841 21 23 25.0842 23 30.1042C23 35.1242 27.0842 39.2084 32.1042 39.2084C34.2697 39.2084 36.2587 38.4455 37.8232 37.1783L44.5045 43.8597C44.6917 44.0468 44.995 44.0468 45.1822 43.8597L45.8597 43.1821C46.0468 42.995 46.0468 42.6916 45.8596 42.5045ZM32.1042 37.2917C28.1408 37.2917 24.9167 34.0676 24.9167 30.1042C24.9167 26.1408 28.1408 22.9167 32.1042 22.9167C36.0676 22.9167 39.2917 26.1408 39.2917 30.1042C39.2917 34.0676 36.0676 37.2917 32.1042 37.2917Z" fill="white"/>
</svg>
