<svg width="50" height="50" viewBox="0 0 50 50" fill="none" xmlns="http://www.w3.org/2000/svg">
<path d="M13.967 33.9522H15.5575H42.676C43.3312 33.9522 43.9086 33.5218 44.0957 32.8937L49.9384 13.2757C50.0719 12.8275 49.9857 12.3425 49.7062 11.9675C49.4267 11.5925 48.9864 11.3716 48.5187 11.3716H10.8193L8.8259 4.67823C8.63888 4.0503 8.06144 3.61983 7.40617 3.61983H1.48135C0.663283 3.61974 0 4.28292 0 5.10109C0 5.91915 0.663283 6.58244 1.48135 6.58244H6.30177L8.28566 13.2437C8.29172 13.2657 8.29806 13.2874 8.30509 13.3089L13.5752 31.0045C10.567 31.2068 8.18097 33.7172 8.18097 36.7758C8.18097 39.9662 10.7766 42.5618 13.9669 42.5618H15.4375C16.0802 44.7652 18.1169 46.3804 20.5251 46.3804C22.9332 46.3804 24.9701 44.7653 25.6127 42.5618H33.4723C34.115 44.7652 36.1517 46.3804 38.5599 46.3804C40.968 46.3804 43.0049 44.7653 43.6475 42.5618H45.556C46.3741 42.5618 47.0374 41.8985 47.0374 41.0805C47.0374 40.2624 46.3741 39.5991 45.556 39.5991H43.6475C43.0049 37.3956 40.9681 35.7805 38.5599 35.7805C36.1517 35.7805 34.1149 37.3956 33.4723 39.5991H25.6127C24.9701 37.3956 22.9333 35.7805 20.5251 35.7805C18.1169 35.7805 16.0801 37.3956 15.4375 39.5991H13.9669C12.4101 39.5991 11.1436 38.3325 11.1436 36.7757C11.1436 35.2188 12.4102 33.9522 13.967 33.9522ZM35.6979 14.3341H46.532L44.493 21.1805H35.6979V14.3341ZM35.6978 24.1432H43.6105L41.5716 30.9896H35.6978V24.1432ZM24.7368 14.3341H32.7353V21.1805H24.7368V14.3341ZM24.7367 24.1432H32.7352V30.9896H24.7367V24.1432ZM21.7743 30.9896H16.662L14.6231 24.1432H21.7743V30.9896ZM11.7018 14.3341H21.7742V21.1805H13.7407L11.7018 14.3341ZM38.56 38.7432C39.8488 38.7432 40.8972 39.7916 40.8972 41.0804C40.8972 42.3691 39.8488 43.4176 38.56 43.4176C37.2713 43.4176 36.2228 42.3691 36.2228 41.0804C36.2228 39.7916 37.2713 38.7432 38.56 38.7432ZM20.5252 38.7432C21.814 38.7432 22.8624 39.7916 22.8624 41.0804C22.8624 42.3691 21.814 43.4176 20.5252 43.4176C19.2365 43.4176 18.188 42.3691 18.188 41.0804C18.188 39.7916 19.2365 38.7432 20.5252 38.7432Z" fill="white"/>
</svg>
