<svg width="25" height="25" viewBox="0 0 25 25" fill="none" xmlns="http://www.w3.org/2000/svg">
<path d="M20.4416 5.79175C18.494 3.84009 15.9568 2.69429 13.2324 2.51968V1.46484H14.3066C14.7111 1.46484 15.0391 1.13691 15.0391 0.732422C15.0391 0.32793 14.7111 0 14.3066 0H10.6934C10.2889 0 9.96093 0.32793 9.96093 0.732422C9.96093 1.13691 10.2889 1.46484 10.6934 1.46484H11.7676V2.51968C9.89955 2.6394 8.11972 3.21582 6.55746 4.19565L5.86171 3.49849C5.52309 3.15918 5.07265 2.97236 4.5933 2.97236C4.11396 2.97236 3.66352 3.15923 3.32494 3.49849L2.26679 4.55894C1.57026 5.25684 1.57026 6.39248 2.26679 7.09043L2.96728 7.79238C1.86166 9.56147 1.26957 11.6089 1.26957 13.7478C1.26957 16.753 2.43754 19.5786 4.55834 21.7038C6.67953 23.8293 9.49994 25 12.5 25C15.5 25 18.3205 23.8293 20.4416 21.7038C22.5624 19.5786 23.7304 16.753 23.7304 13.7478C23.7304 10.7425 22.5624 7.91694 20.4416 5.79175ZM3.30366 5.5937L4.36186 4.5333C4.44526 4.44976 4.54267 4.43726 4.59335 4.43726C4.64404 4.43726 4.7415 4.44971 4.8249 4.5333L5.35566 5.06514C5.08041 5.29331 4.8142 5.53545 4.55839 5.7918C4.30331 6.04741 4.06235 6.31338 3.83525 6.58838L3.30366 6.05571C3.17651 5.92832 3.17651 5.72105 3.30366 5.5937ZM12.5 23.5352C7.11523 23.5352 2.73442 19.1445 2.73442 13.7478C2.73442 8.35098 7.11523 3.96035 12.5 3.96035C17.8848 3.96035 22.2656 8.35093 22.2656 13.7478C22.2656 19.1446 17.8848 23.5352 12.5 23.5352Z" fill="white"/>
<path d="M12.5 5.33325C7.86905 5.33325 4.10152 9.10796 4.10152 13.7477C4.10152 18.3875 7.86905 22.1622 12.5 22.1622C17.131 22.1622 20.8985 18.3875 20.8985 13.7477C20.8985 9.10796 17.131 5.33325 12.5 5.33325ZM13.2324 20.6585V19.8024C13.2324 19.3979 12.9045 19.07 12.5 19.07C12.0955 19.07 11.7676 19.3979 11.7676 19.8024V20.6585C8.52755 20.316 5.94581 17.7278 5.60484 14.4801H6.44532C6.84981 14.4801 7.17774 14.1522 7.17774 13.7477C7.17774 13.3432 6.84981 13.0153 6.44532 13.0153H5.60489C5.94581 9.76758 8.52755 7.17939 11.7676 6.83687V7.69297C11.7676 8.09746 12.0955 8.42539 12.5 8.42539C12.9045 8.42539 13.2324 8.09746 13.2324 7.69297V6.83687C16.4725 7.17939 19.0542 9.76758 19.3952 13.0153H18.5547C18.1502 13.0153 17.8223 13.3432 17.8223 13.7477C17.8223 14.1522 18.1502 14.4801 18.5547 14.4801H19.3951C19.0542 17.7278 16.4725 20.316 13.2324 20.6585Z" fill="white"/>
<path d="M14.3066 13.3251H13.2733V10.3628C13.2733 9.9583 12.9454 9.63037 12.5409 9.63037C12.1364 9.63037 11.8085 9.9583 11.8085 10.3628V14.0575C11.8085 14.462 12.1364 14.7899 12.5409 14.7899H14.3066C14.7111 14.7899 15.0391 14.462 15.0391 14.0575C15.0391 13.653 14.7111 13.3251 14.3066 13.3251Z" fill="white"/>
</svg>
